<svg xmlns="http://www.w3.org/2000/svg">
	<symbol id="envelope" viewBox="0 0 512 512">
		<path d="M502.3 190.8c3.9-3.1 9.7-.2 9.7 4.7V400c0 26.5-21.5 48-48 48H48c-26.5 0-48-21.5-48-48V195.6c0-5 5.7-7.8 9.7-4.7 22.4 17.4 52.1 39.5 154.1 113.6 21.1 15.4 56.7 47.8 92.2 47.6 35.7.3 72-32.8 92.3-47.6 102-74.1 131.6-96.3 154-113.7zM256 320c23.2.4 56.6-29.2 73.4-41.4 132.7-96.3 142.8-104.7 173.4-128.7 5.8-4.5 9.2-11.5 9.2-18.9v-19c0-26.5-21.5-48-48-48H48C21.5 64 0 85.5 0 112v19c0 7.4 3.4 14.3 9.2 18.9 30.6 23.9 40.7 32.4 173.4 128.7 16.8 12.2 50.2 41.8 73.4 41.4z" />
	</symbol>
	<symbol viewBox="0 0 400 400" id="envelope-line">
		<path d="M358.087,111.361L212.269,22.422c-6.083-3.712-14-5.749-22.279-5.749c-8.279,0-16.197,2.037-22.279,5.749L21.892,111.361
		c-12.458,7.611-21.849,24.313-21.849,38.882v179.614c0,16.507,13.453,29.936,29.991,29.936h319.912
		c16.538,0,29.992-13.429,29.992-29.936V150.243C379.937,135.675,370.545,118.973,358.087,111.361z M32.318,128.386l145.819-88.94
		c2.939-1.803,7.254-2.835,11.853-2.835c4.598,0,8.894,1.033,11.852,2.835l145.819,88.94c3.104,1.9,6.083,5.311,8.318,9.17
		L201.09,240.625c-5.799,3.859-16.382,3.859-22.181,0L24.02,137.556c2.236-3.879,5.213-7.289,8.318-9.17H32.318z M349.945,339.836
		H30.034c-5.516,0-9.997-4.473-9.997-9.979V158.906l147.781,98.324c6.219,4.131,14.195,6.207,22.172,6.207
		c7.976,0,15.953-2.076,22.171-6.207l147.781-98.324v170.951C359.942,335.363,355.461,339.836,349.945,339.836z"/>
	</symbol>
</svg>