<svg xmlns="http://www.w3.org/2000/svg"><symbol id="map" viewBox="0 0 400 400"><path d="M199.987,399.707c-3.056,0-5.956-1.394-7.859-3.811c-1.142-1.461-28.352-36.201-55.922-87.517
		c-16.236-30.189-29.191-59.852-38.495-88.131c-11.735-35.656-17.671-69.285-17.671-99.941c0-66.021,53.823-119.743,119.967-119.743
		c66.144,0,119.967,53.723,119.967,119.743c0,30.656-5.956,64.266-17.671,99.941c-9.304,28.279-22.26,57.941-38.495,88.131
		c-27.59,51.315-54.78,86.056-55.922,87.517c-1.903,2.417-4.793,3.811-7.859,3.811H199.987z M199.987,20.522
		c-55.122,0-99.972,44.767-99.972,99.786c0,64.938,29.25,132.995,53.803,178.64c18.032,33.541,36.172,60.144,46.169,74.04
		c10.036-13.954,28.293-40.714,46.345-74.362c24.456-45.565,53.627-113.496,53.627-178.317
		C299.959,65.289,255.108,20.522,199.987,20.522z"/>
	<path d="M199.987,180.179c-33.067,0-59.983-26.866-59.983-59.871c0-33.006,26.917-59.872,59.983-59.872
		s59.983,26.866,59.983,59.872C259.97,153.313,233.054,180.179,199.987,180.179z M199.987,80.394
		c-22.055,0-39.989,17.9-39.989,39.914c0,22.013,17.934,39.914,39.989,39.914c22.054,0,39.989-17.901,39.989-39.914
		C239.976,98.294,222.041,80.394,199.987,80.394z"/></symbol></svg>