<svg xmlns="http://www.w3.org/2000/svg">
	<symbol id="phone" viewBox="0 0 512 512">
		<path d="M493.4 24.6l-104-24c-11.3-2.6-22.9 3.3-27.5 13.9l-48 112c-4.2 9.8-1.4 21.3 6.9 28l60.6 49.6c-36 76.7-98.9 140.5-177.2 177.2l-49.6-60.6c-6.8-8.3-18.2-11.1-28-6.9l-112 48C3.9 366.5-2 378.1.6 389.4l24 104C27.1 504.2 36.7 512 48 512c256.1 0 464-207.5 464-464 0-11.2-7.7-20.9-18.6-23.4z" />
	</symbol>
	<symbol viewBox="0 0 400 400" id="phone-line">
		<path d="M319.954,399.707c-35.41,0-73.085-10.018-111.971-29.779c-35.849-18.213-71.259-44.3-102.413-75.434
		c-31.154-31.135-57.24-66.518-75.478-102.319C10.342,153.332,0.306,115.737,0.306,80.394c0-22.91,21.391-45.041,30.568-53.489
		C44.093,14.753,64.888,0.564,80,0.564c7.518,0,16.314,4.912,27.727,15.445c8.503,7.864,18.081,18.525,27.659,30.813
		c5.779,7.425,34.59,45.323,34.59,63.506c0,14.909-16.899,25.287-34.775,36.24c-6.912,4.229-14.049,8.624-19.213,12.756
		c-5.516,4.404-6.493,6.743-6.659,7.26c18.979,47.223,76.981,105.116,124.272,124.04c0.42-0.146,2.753-1.063,7.254-6.646
		c4.139-5.155,8.542-12.298,12.779-19.178c10.993-17.843,21.371-34.711,36.309-34.711c18.217,0,56.186,28.757,63.625,34.525
		c12.311,9.56,22.992,19.119,30.87,27.607c10.554,11.372,15.474,20.171,15.474,27.675c0,15.084-14.215,35.899-26.37,49.152
		c-8.484,9.218-30.655,30.676-53.608,30.676L319.954,399.707z M79.903,20.522c-5.36,0.097-19.78,6.646-35.449,21.058
		C29.575,55.271,20.32,70.132,20.32,80.394c0,134.291,165.228,299.356,299.634,299.356c10.261,0,25.149-9.277,38.866-24.206
		c14.458-15.728,21.02-30.179,21.117-35.549c-0.645-3.79-11.159-18.534-39.931-40.654c-24.729-18.992-44.782-29.195-49.947-29.313
		c-0.361,0.098-2.597,0.955-7.137,6.705c-3.935,5.009-8.152,11.859-12.252,18.485c-11.198,18.174-21.781,35.363-37.158,35.363
		c-2.48,0-4.911-0.487-7.254-1.423C173.773,288.208,111.71,226.262,90.72,173.874c-2.519-6.285-2.919-16.147,9.47-27.363
		c6.6-5.964,15.718-11.557,24.554-16.985c6.639-4.073,13.521-8.282,18.52-12.229c5.76-4.531,6.619-6.772,6.717-7.123
		c-0.137-5.155-10.339-25.171-29.367-49.854C98.453,31.602,83.681,21.116,79.883,20.463L79.903,20.522z" />
	</symbol>
</svg>