
<svg version="1.1" xmlns="http://www.w3.org/2000/svg" xmlns:xlink="http://www.w3.org/1999/xlink" x="0px" y="0px"  viewBox="0 0 40 40" enable-background="new 0 0 40 40" xml:space="preserve"><path fill="currentColor"  d="M18.349,8.17c-1.75,1.002-3.161,1.866-4.242,2.589s-2.177,1.681-3.293,2.864c-1.041,1.113-1.841,2.284-2.399,3.507c-0.559,1.223-0.949,2.801-1.173,4.727h2.679c2.306,0,4.121,0.564,5.444,1.703c1.32,1.135,1.98,2.799,1.98,4.995c0,1.563-0.584,3.021-1.76,4.38c-1.173,1.359-2.781,2.035-4.827,2.035c-3.201,0-5.489-1.047-6.866-3.145c-1.379-2.098-2.065-4.859-2.065-8.273c0-2.415,0.523-4.617,1.563-6.601c1.044-1.986,2.308-3.761,3.795-5.322c1.526-1.596,3.146-2.952,4.856-4.067c1.71-1.117,3.146-2.024,4.298-2.73L18.349,8.17zM39,8.17c-1.754,1.002-3.165,1.866-4.245,2.589c-1.076,0.723-2.174,1.681-3.29,2.864c-1.08,1.15-1.891,2.326-2.429,3.533c-0.539,1.203-0.919,2.771-1.144,4.701h2.68c2.309,0,4.124,0.564,5.443,1.703c1.325,1.135,1.98,2.799,1.98,4.995c0,1.563-0.586,3.021-1.757,4.38c-1.172,1.359-2.783,2.035-4.827,2.035c-3.198,0-5.491-1.047-6.866-3.145c-1.376-2.098-2.063-4.859-2.063-8.273c0-2.415,0.518-4.617,1.562-6.601c1.041-1.986,2.307-3.761,3.796-5.322c1.529-1.596,3.142-2.952,4.855-4.067c1.71-1.117,3.143-2.024,4.295-2.73L39,8.17z"/></svg>
